<svg xmlns="http://www.w3.org/2000/svg" xmlns:xlink="http://www.w3.org/1999/xlink" width="1366" zoomAndPan="magnify" viewBox="0 0 1024.5 576" height="768" preserveAspectRatio="xMidYMid meet" version="1.0"><defs><clipPath id="bcef0aac31"><path d="M 415 0.140625 L 554 0.140625 L 554 111 L 415 111 Z M 415 0.140625 " clip-rule="nonzero"/></clipPath></defs><path stroke-linecap="round" transform="matrix(0.600846, 0, 0, 0.600846, 528.350448, 300.196234)" fill-opacity="1" fill="#ffffff" fill-rule="nonzero" stroke-linejoin="round" d="M 186.451181 44.336987 C 186.451181 44.336987 186.451181 -44.333551 186.451181 -44.333551 C 186.451181 -44.333551 139.382136 -44.333551 139.382136 -44.333551 C 136.866153 -52.271577 133.680541 -59.910544 129.903315 -67.198445 C 129.903315 -67.198445 163.202713 -100.497843 163.202713 -100.497843 C 163.202713 -100.497843 100.504666 -163.195891 100.504666 -163.195891 C 100.504666 -163.195891 67.205268 -129.896492 67.205268 -129.896492 C 59.923868 -133.693222 52.278399 -136.872333 44.327372 -139.394817 C 44.327372 -139.394817 44.327372 -186.463862 44.327372 -186.463862 C 44.327372 -186.463862 -44.330164 -186.463862 -44.330164 -186.463862 C -44.330164 -186.463862 -44.330164 -139.394817 -44.330164 -139.394817 C -52.27469 -136.872333 -59.92016 -133.693222 -67.20806 -129.896492 C -67.20806 -129.896492 -100.507458 -163.195891 -100.507458 -163.195891 C -100.507458 -163.195891 -163.199004 -100.497843 -163.199004 -100.497843 C -163.199004 -100.497843 -129.906107 -67.198445 -129.906107 -67.198445 C -133.683333 -59.910544 -136.868945 -52.271577 -139.384929 -44.333551 C -139.384929 -44.333551 -186.453973 -44.333551 -186.453973 -44.333551 C -186.453973 -44.333551 -186.453973 44.336987 -186.453973 44.336987 C -186.453973 44.336987 -139.384929 44.336987 -139.384929 44.336987 C -136.868945 52.268511 -133.696336 59.91398 -129.906107 67.20188 C -129.906107 67.20188 -163.199004 100.494777 -163.199004 100.494777 C -163.199004 100.494777 -100.507458 163.192825 -100.507458 163.192825 C -100.507458 163.192825 -67.20806 129.893426 -67.20806 129.893426 C -59.92016 133.690156 -52.27469 136.875768 -44.330164 139.391751 C -44.330164 139.391751 -44.330164 186.460796 -44.330164 186.460796 C -44.330164 186.460796 44.327372 186.460796 44.327372 186.460796 C 44.327372 186.460796 44.327372 139.391751 44.327372 139.391751 C 52.278399 136.875768 59.923868 133.690156 67.205268 129.893426 C 67.205268 129.893426 100.504666 163.192825 100.504666 163.192825 C 100.504666 163.192825 163.202713 100.494777 163.202713 100.494777 C 163.202713 100.494777 129.903315 67.20188 129.903315 67.20188 C 133.700044 59.91398 136.866153 52.268511 139.382136 44.336987 C 139.382136 44.336987 186.451181 44.336987 186.451181 44.336987 Z M 66.204075 3.496139 C 65.384918 19.177152 59.124215 33.388883 49.281323 44.336987 C 47.714522 46.07282 46.063205 47.724137 44.327372 49.290938 C 33.385769 59.127329 19.148033 65.375029 3.493025 66.194186 C 2.329302 66.246196 1.178581 66.278703 0.00185444 66.278703 C -1.174872 66.278703 -2.332094 66.246196 -3.489316 66.194186 C -19.150826 65.375029 -33.38206 59.127329 -44.330164 49.290938 C -46.065997 47.724137 -47.717315 46.07282 -49.284116 44.336987 C -59.120506 33.388883 -65.38771 19.177152 -66.200366 3.496139 C -66.252376 2.338917 -66.284882 1.181694 -66.284882 0.0114695 C -66.284882 -1.165257 -66.252376 -2.322479 -66.200366 -3.499205 C -65.38771 -19.173717 -59.120506 -33.391949 -49.284116 -44.333551 C -47.717315 -46.075886 -46.065997 -47.727203 -44.330164 -49.287503 C -33.38206 -59.130395 -19.150826 -65.378095 -3.489316 -66.197252 C -2.332094 -66.242761 -1.174872 -66.281769 0.00185444 -66.281769 C 1.178581 -66.281769 2.329302 -66.242761 3.493025 -66.197252 C 19.148033 -65.378095 33.385769 -59.130395 44.327372 -49.287503 C 46.063205 -47.727203 47.714522 -46.075886 49.281323 -44.333551 C 59.124215 -33.391949 65.384918 -19.173717 66.204075 -3.499205 C 66.256085 -2.322479 66.288591 -1.165257 66.288591 0.0114695 C 66.288591 1.181694 66.256085 2.338917 66.204075 3.496139 Z M 66.204075 3.496139 " stroke="#253237" stroke-width="2" stroke-opacity="1" stroke-miterlimit="4"/><path stroke-linecap="round" transform="matrix(0.600846, 0, 0, 0.600846, 261.828339, 196.556299)" fill-opacity="1" fill="#ffffff" fill-rule="nonzero" stroke-linejoin="round" d="M 186.455471 44.335837 C 186.455471 44.335837 186.455471 -44.334701 186.455471 -44.334701 C 186.455471 -44.334701 139.386427 -44.334701 139.386427 -44.334701 C 136.863942 -52.266225 133.684831 -59.911694 129.907605 -67.199595 C 129.907605 -67.199595 163.200502 -100.498993 163.200502 -100.498993 C 163.200502 -100.498993 100.502455 -163.190539 100.502455 -163.190539 C 100.502455 -163.190539 67.209558 -129.897642 67.209558 -129.897642 C 59.921657 -133.694372 52.276188 -136.873482 44.331662 -139.395967 C 44.331662 -139.395967 44.331662 -186.465011 44.331662 -186.465011 C 44.331662 -186.465011 -44.325874 -186.465011 -44.325874 -186.465011 C -44.325874 -186.465011 -44.325874 -139.395967 -44.325874 -139.395967 C -52.276901 -136.873482 -59.92237 -133.694372 -67.20377 -129.897642 C -67.20377 -129.897642 -100.503168 -163.190539 -100.503168 -163.190539 C -100.503168 -163.190539 -163.201215 -100.498993 -163.201215 -100.498993 C -163.201215 -100.498993 -129.901817 -67.199595 -129.901817 -67.199595 C -133.679043 -59.911694 -136.864655 -52.266225 -139.38714 -44.334701 C -139.38714 -44.334701 -186.456184 -44.334701 -186.456184 -44.334701 C -186.456184 -44.334701 -186.456184 44.335837 -186.456184 44.335837 C -186.456184 44.335837 -139.38714 44.335837 -139.38714 44.335837 C -136.864655 52.267361 -133.698546 59.91283 -129.901817 67.20073 C -129.901817 67.20073 -163.201215 100.500129 -163.201215 100.500129 C -163.201215 100.500129 -100.503168 163.191675 -100.503168 163.191675 C -100.503168 163.191675 -67.20377 129.892276 -67.20377 129.892276 C -59.92237 133.689006 -52.276901 136.874618 -44.325874 139.390601 C -44.325874 139.390601 -44.325874 186.466147 -44.325874 186.466147 C -44.325874 186.466147 44.331662 186.466147 44.331662 186.466147 C 44.331662 186.466147 44.331662 139.390601 44.331662 139.390601 C 52.276188 136.874618 59.921657 133.689006 67.209558 129.892276 C 67.209558 129.892276 100.502455 163.191675 100.502455 163.191675 C 100.502455 163.191675 163.200502 100.500129 163.200502 100.500129 C 163.200502 100.500129 129.907605 67.20073 129.907605 67.20073 C 133.697833 59.91283 136.863942 52.267361 139.386427 44.335837 C 139.386427 44.335837 186.455471 44.335837 186.455471 44.335837 Z M 66.201864 3.494989 C 65.389208 19.176002 59.122004 33.394234 49.285614 44.335837 C 47.718813 46.07167 46.067495 47.722988 44.331662 49.289789 C 33.383558 59.13268 19.152324 65.373879 3.490814 66.193037 C 2.333592 66.245047 1.17637 66.277553 -0.000356515 66.277553 C -1.177083 66.277553 -2.327804 66.245047 -3.491527 66.193037 C -19.153037 65.373879 -33.37777 59.13268 -44.325874 49.289789 C -46.061707 47.722988 -47.713024 46.07167 -49.279826 44.335837 C -59.122717 33.394234 -65.38342 19.176002 -66.202577 3.494989 C -66.254587 2.337767 -66.287093 1.180545 -66.287093 0.0103197 C -66.287093 -1.166406 -66.254587 -2.323629 -66.202577 -3.500355 C -65.38342 -19.174867 -59.122717 -33.393099 -49.279826 -44.334701 C -47.713024 -46.070535 -46.061707 -47.721852 -44.325874 -49.288653 C -33.37777 -59.131544 -19.153037 -65.379245 -3.491527 -66.191901 C -2.327804 -66.243911 -1.177083 -66.276417 -0.000356515 -66.276417 C 1.17637 -66.276417 2.333592 -66.243911 3.490814 -66.191901 C 19.152324 -65.379245 33.383558 -59.131544 44.331662 -49.288653 C 46.067495 -47.721852 47.718813 -46.070535 49.285614 -44.334701 C 59.122004 -33.393099 65.389208 -19.174867 66.201864 -3.500355 C 66.253874 -2.323629 66.28638 -1.166406 66.28638 0.0103197 C 66.28638 1.180545 66.253874 2.337767 66.201864 3.494989 Z M 66.201864 3.494989 " stroke="#253237" stroke-width="2" stroke-opacity="1" stroke-miterlimit="4"/><path stroke-linecap="butt" transform="matrix(0.600846, 0, 0, 0.600846, 492.092337, 62.421619)" fill-opacity="1" fill="#253237" fill-rule="nonzero" stroke-linejoin="miter" d="M 69.175643 63.959716 C 69.175643 63.959716 -69.177442 63.959716 -69.177442 63.959716 C -78.623757 63.959716 -86.282228 56.301244 -86.282228 46.854929 C -86.282228 46.854929 -86.282228 -46.854077 -86.282228 -46.854077 C -86.282228 -56.300392 -78.623757 -63.958864 -69.177442 -63.958864 C -69.177442 -63.958864 69.175643 -63.958864 69.175643 -63.958864 C 78.621958 -63.958864 86.280429 -56.300392 86.280429 -46.854077 C 86.280429 -46.854077 86.280429 46.854929 86.280429 46.854929 C 86.280429 56.301244 78.621958 63.959716 69.175643 63.959716 Z M 69.175643 63.959716 " stroke="#253237" stroke-width="2" stroke-opacity="1" stroke-miterlimit="10"/><path fill="#ffffff" d="M 525.816406 93.011719 C 525.816406 93.011719 442.6875 93.011719 442.6875 93.011719 C 437.011719 93.011719 432.410156 88.410156 432.410156 82.734375 C 432.410156 82.734375 432.410156 26.429688 432.410156 26.429688 C 432.410156 20.753906 437.011719 16.152344 442.6875 16.152344 C 442.6875 16.152344 525.816406 16.152344 525.816406 16.152344 C 531.492188 16.152344 536.09375 20.753906 536.09375 26.429688 C 536.09375 26.429688 536.09375 82.734375 536.09375 82.734375 C 536.09375 88.410156 531.492188 93.011719 525.816406 93.011719 Z M 525.816406 93.011719 " fill-opacity="1" fill-rule="nonzero"/><g clip-path="url(#bcef0aac31)"><path stroke-linecap="butt" transform="matrix(0.600846, 0, 0, 0.600846, 484.252508, 54.581782)" fill="none" stroke-linejoin="miter" d="M 69.175619 63.959704 C 69.175619 63.959704 -69.177465 63.959704 -69.177465 63.959704 C -78.62378 63.959704 -86.282252 56.301233 -86.282252 46.854917 C -86.282252 46.854917 -86.282252 -46.854089 -86.282252 -46.854089 C -86.282252 -56.300404 -78.62378 -63.958875 -69.177465 -63.958875 C -69.177465 -63.958875 69.175619 -63.958875 69.175619 -63.958875 C 78.621934 -63.958875 86.280406 -56.300404 86.280406 -46.854089 C 86.280406 -46.854089 86.280406 46.854917 86.280406 46.854917 C 86.280406 56.301233 78.621934 63.959704 69.175619 63.959704 Z M 69.175619 63.959704 " stroke="#253237" stroke-width="2" stroke-opacity="1" stroke-miterlimit="10"/></g><path stroke-linecap="round" transform="matrix(0.600846, 0, 0, 0.600846, 484.253107, 54.581782)" fill="none" stroke-linejoin="round" d="M 52.823979 36.017335 C 52.823979 36.017335 -53.920032 33.982444 -53.920032 33.982444 C -53.920032 33.982444 -52.827822 -36.016506 -52.827822 -36.016506 C -52.827822 -36.016506 53.92269 -33.988116 53.92269 -33.988116 C 53.92269 -33.988116 52.823979 36.017335 52.823979 36.017335 Z M 52.823979 36.017335 " stroke="#253237" stroke-width="2" stroke-opacity="1" stroke-miterlimit="4"/><path stroke-linecap="round" transform="matrix(0.600846, 0, 0, 0.600846, 484.581123, 43.761141)" fill="none" stroke-linejoin="round" d="M -53.373745 -18.007499 C -53.373745 -18.007499 -0.551095 18.009421 -0.551095 18.009421 C -0.551095 18.009421 53.376767 -15.979109 53.376767 -15.979109 " stroke="#253237" stroke-width="2" stroke-opacity="1" stroke-miterlimit="4"/><path stroke-linecap="round" transform="matrix(0.600846, 0, 0, 0.600846, 464.626439, 62.455265)" fill="none" stroke-linejoin="round" d="M -21.254979 20.878451 C -21.254979 20.878451 21.25669 -20.879073 21.25669 -20.879073 " stroke="#253237" stroke-width="2" stroke-opacity="1" stroke-miterlimit="4"/><path stroke-linecap="round" transform="matrix(0.600846, 0, 0, 0.600846, 503.62135, 63.197914)" fill="none" stroke-linejoin="round" d="M 20.58903 21.677337 C 20.58903 21.677337 -20.589883 -21.679494 -20.589883 -21.679494 " stroke="#253237" stroke-width="2" stroke-opacity="1" stroke-miterlimit="4"/><path stroke-linecap="butt" transform="matrix(0.600846, 0, 0, 0.600846, 668.130032, 126.84885)" fill-opacity="1" fill="#253237" fill-rule="nonzero" stroke-linejoin="miter" d="M 69.177919 63.963805 C 69.177919 63.963805 -69.175165 63.963805 -69.175165 63.963805 C -78.62148 63.963805 -86.279952 56.305333 -86.279952 46.859018 C -86.279952 46.859018 -86.279952 -46.856489 -86.279952 -46.856489 C -86.279952 -56.302805 -78.62148 -63.961276 -69.175165 -63.961276 C -69.175165 -63.961276 69.177919 -63.961276 69.177919 -63.961276 C 78.624234 -63.961276 86.282706 -56.302805 86.282706 -46.856489 C 86.282706 -46.856489 86.282706 46.859018 86.282706 46.859018 C 86.282706 56.305333 78.624234 63.963805 69.177919 63.963805 Z M 69.177919 63.963805 " stroke="#253237" stroke-width="2" stroke-opacity="1" stroke-miterlimit="10"/><path stroke-linecap="butt" transform="matrix(0.600846, 0, 0, 0.600846, 660.290155, 119.793109)" fill-opacity="1" fill="#ffffff" fill-rule="nonzero" stroke-linejoin="miter" d="M 69.177975 63.959057 C 69.177975 63.959057 -69.175109 63.959057 -69.175109 63.959057 C -78.621424 63.959057 -86.279896 56.300585 -86.279896 46.85427 C -86.279896 46.85427 -86.279896 -46.854736 -86.279896 -46.854736 C -86.279896 -56.301051 -78.621424 -63.959523 -69.175109 -63.959523 C -69.175109 -63.959523 69.177975 -63.959523 69.177975 -63.959523 C 78.62429 -63.959523 86.282762 -56.301051 86.282762 -46.854736 C 86.282762 -46.854736 86.282762 46.85427 86.282762 46.85427 C 86.282762 56.300585 78.62429 63.959057 69.177975 63.959057 Z M 69.177975 63.959057 " stroke="#253237" stroke-width="2" stroke-opacity="1" stroke-miterlimit="10"/><path fill="#253237" d="M 682.320312 125.296875 C 682.320312 125.296875 648.726562 125.296875 648.726562 125.296875 C 648.246094 125.296875 647.859375 124.914062 647.859375 124.441406 C 647.859375 123.96875 648.246094 123.582031 648.726562 123.582031 C 648.726562 123.582031 681.59375 123.582031 681.59375 123.582031 C 681.59375 123.582031 685.296875 102.84375 685.296875 102.84375 C 685.296875 102.84375 645.558594 102.84375 645.558594 102.84375 C 645.082031 102.84375 644.691406 102.460938 644.691406 101.988281 C 644.691406 101.515625 645.082031 101.128906 645.558594 101.128906 C 645.558594 101.128906 686.328125 101.128906 686.328125 101.128906 C 686.585938 101.128906 686.828125 101.242188 686.992188 101.4375 C 687.160156 101.632812 687.226562 101.886719 687.183594 102.136719 C 687.183594 102.136719 683.171875 124.589844 683.171875 124.589844 C 683.097656 125 682.738281 125.296875 682.320312 125.296875 Z M 682.320312 125.296875 " fill-opacity="1" fill-rule="nonzero"/><path fill="#253237" d="M 681.207031 133.152344 C 681.207031 133.152344 681.203125 133.152344 681.203125 133.152344 C 681.203125 133.152344 649.207031 133.042969 649.207031 133.042969 C 648.773438 133.042969 648.410156 132.722656 648.355469 132.296875 C 648.355469 132.296875 643.765625 96.867188 643.765625 96.867188 C 643.765625 96.867188 634.25 96.867188 634.25 96.867188 C 633.773438 96.867188 633.386719 96.484375 633.386719 96.011719 C 633.386719 95.539062 633.773438 95.152344 634.25 95.152344 C 634.25 95.152344 644.527344 95.152344 644.527344 95.152344 C 644.960938 95.152344 645.328125 95.472656 645.382812 95.902344 C 645.382812 95.902344 649.976562 131.332031 649.976562 131.332031 C 649.976562 131.332031 681.210938 131.4375 681.210938 131.4375 C 681.6875 131.441406 682.074219 131.824219 682.070312 132.296875 C 682.070312 132.769531 681.683594 133.152344 681.207031 133.152344 Z M 681.207031 133.152344 " fill-opacity="1" fill-rule="nonzero"/><path fill="#253237" d="M 654.429688 144.433594 C 651.757812 144.433594 649.582031 142.277344 649.582031 139.628906 C 649.582031 136.980469 651.757812 134.824219 654.429688 134.824219 C 657.105469 134.824219 659.28125 136.980469 659.28125 139.628906 C 659.28125 142.277344 657.105469 144.433594 654.429688 144.433594 Z M 654.429688 136.539062 C 652.710938 136.539062 651.3125 137.925781 651.3125 139.628906 C 651.3125 141.332031 652.710938 142.71875 654.429688 142.71875 C 656.152344 142.71875 657.550781 141.332031 657.550781 139.628906 C 657.550781 137.925781 656.152344 136.539062 654.429688 136.539062 Z M 654.429688 136.539062 " fill-opacity="1" fill-rule="nonzero"/><path fill="#253237" d="M 676.515625 144.433594 C 673.839844 144.433594 671.664062 142.277344 671.664062 139.628906 C 671.664062 136.980469 673.839844 134.824219 676.515625 134.824219 C 679.1875 134.824219 681.363281 136.980469 681.363281 139.628906 C 681.363281 142.277344 679.1875 144.433594 676.515625 144.433594 Z M 676.515625 136.539062 C 674.792969 136.539062 673.394531 137.925781 673.394531 139.628906 C 673.394531 141.332031 674.792969 142.71875 676.515625 142.71875 C 678.234375 142.71875 679.632812 141.332031 679.632812 139.628906 C 679.632812 137.925781 678.234375 136.539062 676.515625 136.539062 Z M 676.515625 136.539062 " fill-opacity="1" fill-rule="nonzero"/><path fill="#253237" d="M 659.097656 125.296875 C 658.644531 125.296875 658.261719 124.949219 658.234375 124.496094 C 658.234375 124.496094 656.867188 102.765625 656.867188 102.765625 C 656.835938 102.292969 657.199219 101.886719 657.675781 101.855469 C 658.191406 101.839844 658.566406 102.1875 658.59375 102.660156 C 658.59375 102.660156 659.960938 124.386719 659.960938 124.386719 C 659.992188 124.859375 659.628906 125.265625 659.152344 125.296875 C 659.132812 125.296875 659.113281 125.296875 659.097656 125.296875 Z M 659.097656 125.296875 " fill-opacity="1" fill-rule="nonzero"/><path fill="#253237" d="M 671.378906 125.296875 C 671.363281 125.296875 671.347656 125.296875 671.332031 125.296875 C 670.855469 125.269531 670.488281 124.867188 670.515625 124.394531 C 670.515625 124.394531 671.742188 102.664062 671.742188 102.664062 C 671.769531 102.195312 672.136719 101.839844 672.65625 101.855469 C 673.132812 101.882812 673.496094 102.285156 673.46875 102.757812 C 673.46875 102.757812 672.242188 124.488281 672.242188 124.488281 C 672.21875 124.945312 671.835938 125.296875 671.378906 125.296875 Z M 671.378906 125.296875 " fill-opacity="1" fill-rule="nonzero"/><path fill="#253237" d="M 646.800781 114.433594 C 646.328125 114.433594 645.941406 114.054688 645.9375 113.585938 C 645.929688 113.109375 646.316406 112.722656 646.792969 112.71875 C 646.792969 112.71875 684.316406 112.359375 684.316406 112.359375 C 684.867188 112.347656 685.183594 112.734375 685.1875 113.207031 C 685.195312 113.679688 684.8125 114.066406 684.332031 114.074219 C 684.332031 114.074219 646.808594 114.433594 646.808594 114.433594 C 646.808594 114.433594 646.800781 114.433594 646.800781 114.433594 Z M 646.800781 114.433594 " fill-opacity="1" fill-rule="nonzero"/><path stroke-linecap="butt" transform="matrix(0.600846, 0, 0, 0.600846, 792.497954, 258.63476)" fill-opacity="1" fill="#253237" fill-rule="nonzero" stroke-linejoin="miter" d="M 69.176697 63.96255 C 69.176697 63.96255 -69.176388 63.96255 -69.176388 63.96255 C -78.622703 63.96255 -86.281174 56.304078 -86.281174 46.857763 C -86.281174 46.857763 -86.281174 -46.857744 -86.281174 -46.857744 C -86.281174 -56.304059 -78.622703 -63.962531 -69.176388 -63.962531 C -69.176388 -63.962531 69.176697 -63.962531 69.176697 -63.962531 C 78.623012 -63.962531 86.281484 -56.304059 86.281484 -46.857744 C 86.281484 -46.857744 86.281484 46.857763 86.281484 46.857763 C 86.281484 56.304078 78.623012 63.96255 69.176697 63.96255 Z M 69.176697 63.96255 " stroke="#253237" stroke-width="2" stroke-opacity="1" stroke-miterlimit="10"/><path stroke-linecap="butt" transform="matrix(0.600846, 0, 0, 0.600846, 784.658124, 250.794906)" fill-opacity="1" fill="#ffffff" fill-rule="nonzero" stroke-linejoin="miter" d="M 69.176673 63.962566 C 69.176673 63.962566 -69.176411 63.962566 -69.176411 63.962566 C -78.622726 63.962566 -86.281198 56.304094 -86.281198 46.857779 C -86.281198 46.857779 -86.281198 -46.857728 -86.281198 -46.857728 C -86.281198 -56.304043 -78.622726 -63.962515 -69.176411 -63.962515 C -69.176411 -63.962515 69.176673 -63.962515 69.176673 -63.962515 C 78.622988 -63.962515 86.28146 -56.304043 86.28146 -46.857728 C 86.28146 -46.857728 86.28146 46.857779 86.28146 46.857779 C 86.28146 56.304094 78.622988 63.962566 69.176673 63.962566 Z M 69.176673 63.962566 " stroke="#253237" stroke-width="2" stroke-opacity="1" stroke-miterlimit="10"/><path stroke-linecap="round" transform="matrix(0.600846, 0, 0, 0.600846, 784.658124, 250.794906)" fill="none" stroke-linejoin="round" d="M 41.305818 -0.00322493 C 41.305818 22.81616 22.816265 41.312214 -0.00311964 41.312214 C -22.816003 41.312214 -41.312057 22.81616 -41.312057 -0.00322493 C -41.312057 -22.816108 -22.816003 -41.312162 -0.00311964 -41.312162 C 22.816265 -41.312162 41.305818 -22.816108 41.305818 -0.00322493 Z M 41.305818 -0.00322493 " stroke="#253237" stroke-width="2" stroke-opacity="1" stroke-miterlimit="4"/><path stroke-linecap="round" transform="matrix(0.600846, 0, 0, 0.600846, 784.586615, 250.794906)" fill="none" stroke-linejoin="round" d="M 0.440957 -41.312162 C 29.313005 -41.312162 29.313005 41.312214 0.440957 41.312214 C -29.315261 41.305713 -29.315261 -41.312162 0.440957 -41.312162 Z M 0.440957 -41.312162 " stroke="#253237" stroke-width="2" stroke-opacity="1" stroke-miterlimit="4"/><path stroke-linecap="round" transform="matrix(0.600846, 0, 0, 0.600846, 729.811678, 209.359364)" fill="none" stroke-linejoin="round" d="M 91.603969 27.649831 C 91.603969 27.649831 91.603969 110.274207 91.603969 110.274207 " stroke="#253237" stroke-width="2" stroke-opacity="1" stroke-miterlimit="4"/><path stroke-linecap="round" transform="matrix(0.600846, 0, 0, 0.600846, 729.811678, 209.359364)" fill="none" stroke-linejoin="round" d="M 49.976471 68.958769 C 49.976471 68.958769 132.594345 68.958769 132.594345 68.958769 " stroke="#253237" stroke-width="2" stroke-opacity="1" stroke-miterlimit="4"/><path stroke-linecap="round" transform="matrix(0.600846, 0, 0, 0.600846, 328.974648, 434.555061)" fill-opacity="1" fill="#02c37e" fill-rule="nonzero" stroke-linejoin="round" d="M 214.791458 -41.017002 C 214.791458 -41.017002 208.010655 176.696831 208.010655 176.696831 C 208.010655 176.696831 206.359338 220.723291 206.359338 220.723291 C 206.359338 220.723291 206.339834 221.535947 206.339834 221.535947 C 206.339834 221.535947 206.157799 220.723291 206.157799 220.723291 C 206.157799 220.723291 -158.776823 196.766187 -158.776823 196.766187 C -158.776823 196.766187 -175.400517 176.696831 -175.400517 176.696831 C -175.400517 176.696831 -205.540308 -64.141946 -205.540308 -64.141946 C -216.026823 -147.962552 -145.540279 -221.537189 -54.750334 -221.537189 C -54.750334 -221.537189 26.0927 -221.537189 26.0927 -221.537189 C 89.609905 -221.537189 145.631169 -192.424595 179.821239 -147.936547 C 202.900673 -117.907277 216.033197 -80.856658 214.791458 -41.017002 Z M 214.791458 -41.017002 " stroke="#253237" stroke-width="2" stroke-opacity="1" stroke-miterlimit="4"/><path stroke-linecap="round" transform="matrix(0.600846, 0, 0, 0.600846, 455.086247, 450.657729)" fill-opacity="1" fill="#d4d4d4" fill-rule="nonzero" stroke-linejoin="round" d="M 61.202244 193.923301 C 61.202244 193.923301 -3.530694 193.923301 -3.530694 193.923301 C -3.530694 193.923301 -3.550198 194.735957 -3.550198 194.735957 C -3.550198 194.735957 -3.732233 193.923301 -3.732233 193.923301 C -3.732233 193.923301 -14.940386 149.896841 -14.940386 149.896841 C -14.940386 149.896841 -59.278906 -59.755443 -59.278906 -59.755443 C -61.196775 -101.551975 -49.98212 -147.74335 -30.068793 -174.736537 C -23.268487 -183.955308 -15.460486 -190.93765 -6.807324 -194.73438 C 13.190519 -134.766857 33.552431 1.323793 53.972855 149.896841 C 56.378317 167.424209 58.790281 176.135883 61.202244 193.923301 Z M 61.202244 193.923301 " stroke="#253237" stroke-width="2" stroke-opacity="1" stroke-miterlimit="4"/><path stroke-linecap="round" transform="matrix(0.600846, 0, 0, 0.600846, 354.849499, 430.976991)" fill-opacity="1" fill="#d4d4d4" fill-rule="nonzero" stroke-linejoin="round" d="M 161.214912 -162.031347 C 130.34698 -179.396184 100.21369 -194.388065 71.530179 -204.679542 C 71.530179 -204.679542 -61.472378 -210.355133 -61.472378 -210.355133 C -96.124036 -195.629803 -129.663981 -178.069929 -161.214543 -155.426078 C -161.214543 -155.426078 -79.49384 201.954092 -79.49384 201.954092 C 9.924341 210.353706 81.191035 208.370825 125.588066 191.018991 C 125.588066 191.018991 161.214912 -162.031347 161.214912 -162.031347 Z M 161.214912 -162.031347 " stroke="#253237" stroke-width="2" stroke-opacity="1" stroke-miterlimit="4"/><path stroke-linecap="butt" transform="matrix(0.600846, 0, 0, 0.600846, 354.104492, 296.65187)" fill-opacity="1" fill="#ffffff" fill-rule="nonzero" stroke-linejoin="miter" d="M -46.430296 -66.871061 C -46.430296 -66.871061 -39.786019 -5.466762 -39.786019 -5.466762 C -39.786019 -5.466762 24.303295 66.872638 24.303295 66.872638 C 24.303295 66.872638 46.433548 21.3964 46.433548 21.3964 C 46.433548 21.3964 44.132106 -37.999013 44.132106 -37.999013 C 44.132106 -37.999013 -46.430296 -66.871061 -46.430296 -66.871061 Z M -46.430296 -66.871061 " stroke="#253237" stroke-width="2" stroke-opacity="1" stroke-miterlimit="10"/><path stroke-linecap="round" transform="matrix(0.600846, 0, 0, 0.600846, 338.044458, 314.420686)" fill-opacity="1" fill="#d4d4d4" fill-rule="nonzero" stroke-linejoin="round" d="M 51.032328 37.299645 C 51.032328 37.299645 18.701616 20.968507 18.701616 20.968507 C 18.701616 20.968507 1.973902 46.856482 1.973902 46.856482 C 1.973902 46.856482 -51.030783 -18.695614 -51.030783 -18.695614 C -51.030783 -18.695614 -27.164697 -46.358429 -27.164697 -46.358429 C -27.164697 -46.358429 -14.331231 -46.852524 -14.331231 -46.852524 C -14.331231 -46.852524 -13.056986 -35.039754 -13.056986 -35.039754 C -13.056986 -35.039754 51.032328 37.299645 51.032328 37.299645 Z M 51.032328 37.299645 " stroke="#253237" stroke-width="2" stroke-opacity="1" stroke-miterlimit="4"/><path stroke-linecap="round" transform="matrix(0.600846, 0, 0, 0.600846, 383.267718, 319.341625)" fill-opacity="1" fill="#d4d4d4" fill-rule="nonzero" stroke-linejoin="round" d="M -24.233639 29.103128 C -24.233639 29.103128 -2.773015 14.306285 -2.773015 14.306285 C -2.773015 14.306285 22.523346 37.964331 22.523346 37.964331 C 22.523346 37.964331 24.233174 -18.882592 24.233174 -18.882592 C 24.233174 -18.882592 -2.942048 -37.963759 -2.942048 -37.963759 C -2.942048 -37.963759 -2.109888 -16.366609 -2.109888 -16.366609 C -2.109888 -16.366609 -24.233639 29.103128 -24.233639 29.103128 Z M -24.233639 29.103128 " stroke="#253237" stroke-width="2" stroke-opacity="1" stroke-miterlimit="4"/><path stroke-linecap="round" transform="matrix(0.600846, 0, 0, 0.600846, 366.111169, 342.323387)" fill-opacity="1" fill="#02c37e" fill-rule="nonzero" stroke-linejoin="round" d="M 20.527959 -20.321521 C 23.037441 -3.723832 21.756695 10.39038 16.562197 21.930098 C 16.562197 21.930098 -9.988905 22.957295 -9.988905 22.957295 C -18.102464 11.48259 -21.535123 -4.751029 -23.036912 -22.961028 C -23.036912 -22.961028 4.320345 -9.145874 4.320345 -9.145874 C 4.320345 -9.145874 20.527959 -20.321521 20.527959 -20.321521 Z M 20.527959 -20.321521 " stroke="#253237" stroke-width="2" stroke-opacity="1" stroke-miterlimit="4"/><path stroke-linecap="round" transform="matrix(0.600846, 0, 0, 0.600846, 372.514978, 447.109693)" fill-opacity="1" fill="#02c37e" fill-rule="nonzero" stroke-linejoin="round" d="M 5.904211 -152.467826 C 5.904211 -152.467826 30.764988 -28.137936 30.764988 -28.137936 C 27.410344 28.292907 19.049737 89.710209 9.356374 152.466767 C -6.623696 96.237463 -21.492053 37.440165 -30.762834 -34.327125 C -30.762834 -34.327125 -20.646891 -151.440628 -20.646891 -151.440628 C -20.646891 -151.440628 5.904211 -152.467826 5.904211 -152.467826 Z M 5.904211 -152.467826 " stroke="#253237" stroke-width="2" stroke-opacity="1" stroke-miterlimit="4"/><path stroke-linecap="round" transform="matrix(0.600846, 0, 0, 0.600846, 248.045526, 449.361114)" fill-opacity="1" fill="#d4d4d4" fill-rule="nonzero" stroke-linejoin="round" d="M 66.809083 -29.48606 C 66.809083 -29.48606 20.396665 136.952421 20.396665 136.952421 C 5.820864 185.432237 -72.922267 161.754687 -58.352967 113.281373 C -37.119887 1.804453 -11.465958 -96.500936 17.328075 -185.431524 C 55.717952 -154.206024 72.926758 -102.898166 66.809083 -29.48606 Z M 66.809083 -29.48606 " stroke="#253237" stroke-width="2" stroke-opacity="1" stroke-miterlimit="4"/><path stroke-linecap="round" transform="matrix(0.600846, 0, 0, 0.600846, 353.861095, 277.493887)" fill-opacity="1" fill="#253237" fill-rule="nonzero" stroke-linejoin="round" d="M 42.957393 1.011366 C 42.957393 1.011366 43.77655 22.062411 43.77655 22.062411 C -1.901227 24.70842 -25.448751 6.095343 -43.775773 -24.707576 C -14.019555 -5.307848 12.798098 2.662684 42.957393 1.011366 Z M 42.957393 1.011366 " stroke="#253237" stroke-width="2" stroke-opacity="1" stroke-miterlimit="4"/><path stroke-linecap="butt" transform="matrix(0.600846, 0, 0, 0.600846, 378.56429, 429.724826)" fill-opacity="1" fill="#ffffff" fill-rule="nonzero" stroke-linejoin="miter" d="M -57.682062 2.700908 C -46.759964 -13.396185 -32.333692 -27.659926 -16.269105 -41.052499 C -14.084685 -42.872849 -11.490687 -44.218608 -8.682147 -44.641189 C -4.11827 -45.32382 -0.913154 -43.50347 1.167245 -39.615723 C 4.216331 -33.914128 2.812061 -26.834267 -1.712808 -22.21838 C -1.712808 -22.21838 -17.757891 -5.861237 -17.757891 -5.861237 C -9.033215 -7.532058 -0.926157 -10.470623 6.738816 -14.325864 C 16.620715 -19.292818 24.077648 -28.076006 27.88738 -38.458501 C 27.919886 -38.569022 27.958893 -38.673042 27.997901 -38.777062 C 31.567087 -48.515933 44.992166 -49.452113 49.855101 -40.291853 C 50.427211 -39.225648 50.953812 -38.113935 51.441406 -36.963213 C 57.682605 -22.211879 54.646521 -5.159102 44.608593 7.329797 C 36.339004 17.614774 25.267376 26.573495 9.917927 33.490824 C 9.917927 33.490824 -37.066601 49.451391 -37.066601 49.451391 C -37.066601 49.451391 -57.682062 2.700908 -57.682062 2.700908 Z M -57.682062 2.700908 " stroke="#253237" stroke-width="2" stroke-opacity="1" stroke-miterlimit="10"/><path fill="#d4d4d4" d="M 250.285156 545.039062 C 226.941406 563.382812 196.414062 524.535156 219.761719 506.191406 C 219.761719 506.191406 345.125 425.140625 345.125 425.140625 C 345.125 425.140625 363.328125 459.835938 363.328125 459.835938 C 363.328125 459.835938 250.285156 545.039062 250.285156 545.039062 Z M 250.285156 545.039062 " fill-opacity="1" fill-rule="nonzero"/><path stroke-linecap="butt" transform="matrix(0.600846, 0, 0, 0.600846, 306.806472, 485.091027)" fill="none" stroke-linejoin="miter" d="M 63.774284 -99.776641 C 63.774284 -99.776641 94.070105 -42.032545 94.070105 -42.032545 C 94.070105 -42.032545 -94.069546 99.772702 -94.069546 99.772702 " stroke="#253237" stroke-width="2" stroke-opacity="1" stroke-miterlimit="10"/><path stroke-linecap="round" transform="matrix(0.600846, 0, 0, 0.600846, 227.258054, 535.05552)" fill="none" stroke-linejoin="round" d="M -21.435021 -41.375336 C -38.325266 3.080207 0.682229 41.372564 38.324462 16.615807 " stroke="#253237" stroke-width="2" stroke-opacity="1" stroke-miterlimit="4"/><path stroke-linecap="round" transform="matrix(0.600846, 0, 0, 0.600846, 295.120586, 457.470764)" fill="none" stroke-linejoin="round" d="M -83.228147 53.807488 C -83.228147 53.807488 83.223337 -53.80769 83.223337 -53.80769 " stroke="#253237" stroke-width="2" stroke-opacity="1" stroke-miterlimit="4"/><path stroke-linecap="round" transform="matrix(0.600846, 0, 0, 0.600846, 412.141976, 184.113385)" fill-opacity="1" fill="#253237" fill-rule="nonzero" stroke-linejoin="round" d="M 7.630218 -36.472182 C 16.159857 -12.931158 12.213599 11.442025 -1.725079 36.471835 C -1.725079 36.471835 -16.157853 -31.843292 -16.157853 -31.843292 C -16.157853 -31.843292 7.630218 -36.472182 7.630218 -36.472182 Z M 7.630218 -36.472182 " stroke="#253237" stroke-width="2" stroke-opacity="1" stroke-miterlimit="4"/><path stroke-linecap="butt" transform="matrix(0.600846, 0, 0, 0.600846, 366.130379, 210.337314)" fill-opacity="1" fill="#ffffff" fill-rule="nonzero" stroke-linejoin="miter" d="M -73.726617 -12.244143 C -73.726617 -12.244143 -71.321155 32.503955 -71.321155 32.503955 C -71.321155 32.503955 -65.418021 86.13276 -65.418021 86.13276 C -28.900504 109.738796 9.190315 120.914443 50.148185 109.589267 C 58.911869 107.1578 65.764186 100.292481 68.215157 91.535298 C 79.020233 52.917878 78.363607 0.00421037 66.576842 -66.789624 C 32.711835 -120.912524 -37.358629 -114.827354 -79.018634 -67.472255 C -79.018634 -67.472255 -73.726617 -12.244143 -73.726617 -12.244143 Z M -73.726617 -12.244143 " stroke="#253237" stroke-width="2" stroke-opacity="1" stroke-miterlimit="10"/><path stroke-linecap="butt" transform="matrix(0.600846, 0, 0, 0.600846, 312.685098, 212.717284)" fill-opacity="1" fill="#ffffff" fill-rule="nonzero" stroke-linejoin="miter" d="M 15.223421 -16.205174 C 5.965643 -30.267376 -17.815927 -19.884881 -9.533336 3.981205 C -0.925682 23.862025 8.371105 28.692453 17.81742 30.272257 C 17.81742 30.272257 15.223421 -16.205174 15.223421 -16.205174 Z M 15.223421 -16.205174 " stroke="#253237" stroke-width="2" stroke-opacity="1" stroke-miterlimit="10"/><path stroke-linecap="round" transform="matrix(0.600846, 0, 0, 0.600846, 320.048496, 183.597249)" fill-opacity="1" fill="#253237" fill-rule="nonzero" stroke-linejoin="round" d="M 20.541249 -43.089601 C 39.141323 -16.707532 27.042498 37.187824 4.535173 52.043178 C 4.535173 52.043178 2.968372 32.259877 2.968372 32.259877 C -3.103794 26.402252 -9.540031 23.002098 -17.374036 29.119774 C -35.81808 -3.262949 -39.140219 -30.730727 -23.576228 -52.041821 C -23.576228 -52.041821 20.541249 -43.089601 20.541249 -43.089601 Z M 20.541249 -43.089601 " stroke="#253237" stroke-width="2" stroke-opacity="1" stroke-miterlimit="4"/><path stroke-linecap="round" transform="matrix(0.600846, 0, 0, 0.600846, 367.696764, 144.693083)" fill-opacity="1" fill="#253237" fill-rule="nonzero" stroke-linejoin="round" d="M 74.943985 -46.746772 C 102.879853 -8.038334 90.397454 22.881607 65.491169 51.409089 C 42.619774 28.771739 3.651286 27.367469 -49.971017 45.291413 C -49.971017 45.291413 -102.878183 12.707152 -102.878183 12.707152 C -100.108651 -34.121346 -49.171364 -51.408168 -8.623072 -29.765509 C 34.909292 -13.609905 63.371761 -18.420829 74.943985 -46.746772 Z M 74.943985 -46.746772 " stroke="#253237" stroke-width="2" stroke-opacity="1" stroke-miterlimit="4"/><path stroke-linecap="butt" transform="matrix(0.600846, 0, 0, 0.600846, 335.161588, 234.987011)" fill="none" stroke-linejoin="miter" d="M -25.253235 -24.910673 C -15.013767 -1.148607 -0.548488 18.030078 25.25497 24.9084 " stroke="#253237" stroke-width="4" stroke-opacity="1" stroke-miterlimit="10"/><path stroke-linecap="butt" transform="matrix(0.600846, 0, 0, 0.600846, 351.400625, 250.108522)" fill-opacity="1" fill="#253237" fill-rule="nonzero" stroke-linejoin="miter" d="M 2.330308 7.23731 C 2.330308 7.23731 -6.387868 5.098399 -6.387868 5.098399 C -9.10539 4.42877 -10.678692 1.990802 -9.905044 -0.356149 C -9.905044 -0.356149 -8.643801 -4.204889 -8.643801 -4.204889 C -7.870152 -6.545339 -5.042109 -7.9041 -2.331088 -7.240972 C -2.331088 -7.240972 6.393588 -5.09556 6.393588 -5.09556 C 9.104609 -4.432433 10.677911 -1.987963 9.910764 0.358988 C 9.910764 0.358988 8.64302 4.201226 8.64302 4.201226 C 7.869372 6.548177 5.041328 7.906938 2.330308 7.23731 Z M 2.330308 7.23731 " stroke="#253237" stroke-width="2" stroke-opacity="1" stroke-miterlimit="10"/><path stroke-linecap="butt" transform="matrix(0.600846, 0, 0, 0.600846, 319.441058, 215.028735)" fill-opacity="1" fill="#02c37e" fill-rule="nonzero" stroke-linejoin="miter" d="M 29.984341 -0.00231607 C 29.984341 16.556366 16.559262 29.981445 0.000580052 29.981445 C -16.558102 29.981445 -29.983181 16.556366 -29.983181 -0.00231607 C -29.983181 -16.560998 -16.558102 -29.979576 0.000580052 -29.979576 C 16.559262 -29.979576 29.984341 -16.560998 29.984341 -0.00231607 Z M 29.984341 -0.00231607 " stroke="#253237" stroke-width="2" stroke-opacity="1" stroke-miterlimit="10"/><path stroke-linecap="butt" transform="matrix(0.600846, 0, 0, 0.600846, 342.281004, 171.924025)" fill-opacity="1" fill="#02c37e" fill-rule="nonzero" stroke-linejoin="miter" d="M -50.670326 68.077503 C -44.084561 13.499516 -28.546575 -38.432463 24.757167 -79.16929 C 40.522697 -81.568251 43.597787 -78.948248 52.556509 -69.163868 C -7.254984 -44.992223 -22.916493 8.389534 -32.466828 71.471155 C -34.352191 81.567595 -52.555688 78.173943 -50.670326 68.077503 Z M -50.670326 68.077503 " stroke="#253237" stroke-width="2" stroke-opacity="1" stroke-miterlimit="10"/><path stroke-linecap="round" transform="matrix(0.600846, 0, 0, 0.600846, 392.053897, 218.102645)" fill="none" stroke-linejoin="round" d="M -5.895318 -33.964328 C -3.723901 -8.980027 2.510797 12.025509 12.763267 29.084787 C 3.655017 32.757992 -4.809609 33.967225 -12.767138 33.226082 " stroke="#253237" stroke-width="2" stroke-opacity="1" stroke-miterlimit="4"/><path stroke-linecap="round" transform="matrix(0.600846, 0, 0, 0.600846, 359.841359, 192.357602)" fill="none" stroke-linejoin="round" d="M 12.174318 -5.042019 C 1.161202 -6.264254 -6.952357 -2.500031 -12.17286 6.270154 " stroke="#253237" stroke-width="2" stroke-opacity="1" stroke-miterlimit="4"/><path stroke-linecap="round" transform="matrix(0.600846, 0, 0, 0.600846, 400.477151, 195.32879)" fill="none" stroke-linejoin="round" d="M 9.874418 3.112992 C 4.73193 -0.989296 -1.392247 -3.115205 -9.869876 -0.482199 " stroke="#253237" stroke-width="2" stroke-opacity="1" stroke-miterlimit="4"/><path stroke-linecap="round" transform="matrix(0.600846, 0, 0, 0.600846, 365.190702, 211.916962)" fill-opacity="1" fill="#253237" fill-rule="nonzero" stroke-linejoin="round" d="M -5.024294 0.196713 C -4.809753 5.703271 -2.391288 10.085113 0.384745 9.974592 C 3.160778 9.86407 5.241178 5.313196 5.026637 -0.193362 C 4.812096 -5.706422 2.38713 -10.081762 -0.388904 -9.977742 C -3.158436 -9.867221 -5.238835 -5.316347 -5.024294 0.196713 Z M -5.024294 0.196713 " stroke="#253237" stroke-width="2" stroke-opacity="1" stroke-miterlimit="4"/><path stroke-linecap="round" transform="matrix(0.600846, 0, 0, 0.600846, 400.896536, 206.967782)" fill-opacity="1" fill="#253237" fill-rule="nonzero" stroke-linejoin="round" d="M -3.975599 0.15114 C -3.800066 4.630501 -1.882197 8.193185 0.315225 8.108669 C 2.506146 8.024153 4.150962 4.324942 3.975428 -0.154419 C 3.799895 -4.627278 1.882026 -8.189963 -0.315396 -8.105446 C -2.506317 -8.02093 -4.151133 -4.321719 -3.975599 0.15114 Z M -3.975599 0.15114 " stroke="#253237" stroke-width="2" stroke-opacity="1" stroke-miterlimit="4"/><path stroke-linecap="round" transform="matrix(0.600846, 0, 0, 0.600846, 372.643586, 256.302052)" fill="none" stroke-linejoin="round" d="M 14.817919 4.340719 C 3.895821 3.794614 -6.220123 1.434661 -14.821276 -4.338448 " stroke="#253237" stroke-width="2" stroke-opacity="1" stroke-miterlimit="4"/><path stroke-linecap="round" transform="matrix(0.600846, 0, 0, 0.600846, 816.425507, 476.667706)" fill-opacity="1" fill="#ffffff" fill-rule="nonzero" stroke-linejoin="round" d="M 7.717439 -86.53119 C 8.166025 -89.554271 10.623497 -91.881718 13.672583 -92.154771 C 17.950405 -92.538344 21.46108 -88.813128 20.810955 -84.567813 C 20.810955 -84.567813 -8.210622 92.539218 -8.210622 92.539218 C -8.210622 92.539218 -21.460168 92.539218 -21.460168 92.539218 C -21.460168 92.539218 7.717439 -86.53119 7.717439 -86.53119 Z M 7.717439 -86.53119 " stroke="#253237" stroke-width="2" stroke-opacity="1" stroke-miterlimit="4"/><path stroke-linecap="round" transform="matrix(0.600846, 0, 0, 0.600846, 790.030326, 390.135109)" fill-opacity="1" fill="#ffffff" fill-rule="nonzero" stroke-linejoin="round" d="M 61.990948 59.664644 C 61.990948 59.664644 -57.625536 -71.745107 -57.625536 -71.745107 C -57.625536 -71.745107 -58.496703 -70.301829 -58.496703 -70.301829 C -58.496703 -70.301829 -64.295817 -60.699484 -64.295817 -60.699484 C -64.295817 -60.699484 52.180563 68.551851 52.180563 68.551851 C 55.054116 71.743965 60.164097 71.392897 62.576061 67.836714 C 64.292391 65.307728 64.051844 61.927078 61.990948 59.664644 Z M 61.990948 59.664644 " stroke="#253237" stroke-width="2" stroke-opacity="1" stroke-miterlimit="4"/><path stroke-linecap="round" transform="matrix(0.600846, 0, 0, 0.600846, 804.703005, 536.452478)" fill-opacity="1" fill="#d4d4d4" fill-rule="nonzero" stroke-linejoin="round" d="M -54.454263 8.667242 C -54.454263 8.667242 54.454663 8.667242 54.454663 8.667242 C 54.454663 8.667242 40.554993 -8.665089 4.291024 -8.665089 C -29.482965 -8.665089 -49.59783 1.26882 -54.454263 8.667242 Z M -54.454263 8.667242 " stroke="#253237" stroke-width="2" stroke-opacity="1" stroke-miterlimit="4"/><path stroke-linecap="round" transform="matrix(0.600846, 0, 0, 0.600846, 755.327184, 330.437995)" fill-opacity="1" fill="#d4d4d4" fill-rule="nonzero" stroke-linejoin="round" d="M 0.820723 6.773478 C 0.820723 6.773478 6.359787 -1.528617 6.359787 -1.528617 C 6.359787 -1.528617 -0.479527 -6.775125 -0.479527 -6.775125 C -0.479527 -6.775125 -6.356656 1.57898 -6.356656 1.57898 C -6.356656 1.57898 0.820723 6.773478 0.820723 6.773478 Z M 0.820723 6.773478 " stroke="#253237" stroke-width="2" stroke-opacity="1" stroke-miterlimit="4"/><path stroke-linecap="round" transform="matrix(0.600846, 0, 0, 0.600846, 730.685883, 361.173111)" fill-opacity="1" fill="#ffffff" fill-rule="nonzero" stroke-linejoin="round" d="M 51.206529 -39.367121 C 51.206529 -39.367121 27.37295 -56.647441 27.37295 -56.647441 C 27.37295 -56.647441 4.482051 -29.127653 4.482051 -29.127653 C -35.208075 -22.723923 -51.20765 2.240874 -51.20765 2.240874 C -51.20765 2.240874 19.844503 56.649829 19.844503 56.649829 C 44.165676 29.767163 32.645463 -8.642217 32.645463 -8.642217 C 32.645463 -8.642217 51.206529 -39.367121 51.206529 -39.367121 Z M 51.206529 -39.367121 " stroke="#253237" stroke-width="2" stroke-opacity="1" stroke-miterlimit="4"/><path stroke-linecap="round" transform="matrix(0.600846, 0, 0, 0.600846, 741.838808, 349.826697)" fill="none" stroke-linejoin="round" d="M -14.079982 -10.243592 C -14.079982 -10.243592 14.08343 10.241844 14.08343 10.241844 " stroke="#253237" stroke-width="2" stroke-opacity="1" stroke-miterlimit="4"/><path stroke-linecap="round" transform="matrix(0.600846, 0, 0, 0.600846, 431.942272, 536.302839)" fill-opacity="1" fill="#ffffff" fill-rule="nonzero" stroke-linejoin="round" d="M 110.305255 11.029195 C 110.305255 11.029195 -110.308136 11.029195 -110.308136 11.029195 C -110.308136 11.029195 -110.308136 -11.029544 -110.308136 -11.029544 C -110.308136 -11.029544 110.305255 -11.029544 110.305255 -11.029544 C 110.305255 -11.029544 110.305255 11.029195 110.305255 11.029195 Z M 110.305255 11.029195 " stroke="#253237" stroke-width="2" stroke-opacity="1" stroke-miterlimit="4"/><path stroke-linecap="round" transform="matrix(0.600846, 0, 0, 0.600846, 543.304869, 396.412123)" fill-opacity="1" fill="#ffffff" fill-rule="nonzero" stroke-linejoin="round" d="M -245.097398 160.92865 C -245.097398 160.92865 245.096793 160.92865 245.096793 160.92865 C 245.096793 160.92865 245.096793 -160.928694 245.096793 -160.928694 C 245.096793 -160.928694 -245.097398 -160.928694 -245.097398 -160.928694 C -245.097398 -160.928694 -245.097398 160.92865 -245.097398 160.92865 Z M -245.097398 160.92865 " stroke="#253237" stroke-width="2" stroke-opacity="1" stroke-miterlimit="4"/><path stroke-linecap="round" transform="matrix(0.600846, 0, 0, 0.600846, 390.781335, 396.412739)" fill-opacity="1" fill="#ffffff" fill-rule="nonzero" stroke-linejoin="round" d="M 8.75054 -160.92972 C 8.75054 -160.92972 -8.750823 -160.92972 -8.750823 -160.92972 C -8.750823 -160.92972 -8.750823 160.927624 -8.750823 160.927624 C -8.750823 160.927624 8.75054 160.927624 8.75054 160.927624 C 8.75054 160.927624 8.75054 -160.92972 8.75054 -160.92972 Z M 8.75054 -160.92972 " stroke="#253237" stroke-width="2" stroke-opacity="1" stroke-miterlimit="4"/><path stroke-linecap="round" transform="matrix(0.600846, 0, 0, 0.600846, 566.424233, 489.228431)" fill-opacity="1" fill="#ffffff" fill-rule="nonzero" stroke-linejoin="round" d="M -86.847611 -83.823717 C -86.847611 -83.823717 30.551947 -83.823717 30.551947 -83.823717 C 30.551947 -83.823717 86.846264 83.823997 86.846264 83.823997 C 86.846264 83.823997 -56.642808 83.823997 -56.642808 83.823997 C -56.642808 83.823997 -86.847611 -83.823717 -86.847611 -83.823717 Z M -86.847611 -83.823717 " stroke="#253237" stroke-width="2" stroke-opacity="1" stroke-miterlimit="4"/><path stroke-linecap="round" transform="matrix(0.600846, 0, 0, 0.600846, 517.644618, 489.228431)" fill-opacity="1" fill="#ffffff" fill-rule="nonzero" stroke-linejoin="round" d="M -5.662732 -83.823717 C -5.662732 -83.823717 -24.54236 -83.823717 -24.54236 -83.823717 C -24.54236 -83.823717 2.229785 83.823997 2.229785 83.823997 C 2.229785 83.823997 24.542072 83.823997 24.542072 83.823997 C 24.542072 83.823997 -5.662732 -83.823717 -5.662732 -83.823717 Z M -5.662732 -83.823717 " stroke="#253237" stroke-width="2" stroke-opacity="1" stroke-miterlimit="4"/><path stroke-linecap="round" transform="matrix(0.600846, 0, 0, 0.600846, 533.403558, 556.655297)" fill-opacity="1" fill="#253237" fill-rule="nonzero" stroke-linejoin="round" d="M -609.617658 26.51368 C -609.617658 26.51368 609.620118 26.51368 609.620118 26.51368 C 609.620118 26.51368 609.620118 -26.51701 609.620118 -26.51701 C 609.620118 -26.51701 -609.617658 -26.51701 -609.617658 -26.51701 C -609.617658 -26.51701 -609.617658 26.51368 -609.617658 26.51368 Z M -609.617658 26.51368 " stroke="#253237" stroke-width="2" stroke-opacity="1" stroke-miterlimit="4"/><path stroke-linecap="round" transform="matrix(0.600846, 0, 0, 0.600846, 853.247727, 556.653522)" fill-opacity="1" fill="#253237" fill-rule="nonzero" stroke-linejoin="round" d="M 77.297135 26.516634 C 77.297135 26.516634 -77.29607 26.516634 -77.29607 26.516634 C -77.29607 26.516634 -77.29607 -26.520557 -77.29607 -26.520557 C -77.29607 -26.520557 77.297135 -26.520557 77.297135 -26.520557 C 77.297135 -26.520557 77.297135 26.516634 77.297135 26.516634 Z M 77.297135 26.516634 " stroke="#253237" stroke-width="2" stroke-opacity="1" stroke-miterlimit="4"/></svg>